P3
24 7
255
92 208 201 92 208 201 92 208 201 92 208 201 92 208 201 92 208 201 92 
208 201 92 208 201 92 208 201 92 208 201 92 208 201 92 208 201 92 
208 201 92 208 201 92 208 201 92 208 201 92 208 201 92 208 201 92 
208 201 92 208 201 92 208 201 92 208 201 92 208 201 92 208 201 92 
208 201 92 208 201 0 0 0 0 0 0 0 0 0 0 0 0 92 208 201 0 0 0 0 0 0 0 
0 0 0 0 0 92 208 201 0 0 0 92 208 201 92 208 201 0 0 0 92 208 201 0 
0 0 0 0 0 0 0 0 0 0 0 92 208 201 92 208 201 92 208 201 92 208 201 92 
208 201 0 0 0 92 208 201 92 208 201 92 208 201 92 208 201 0 0 0 238 
160 123 238 160 123 0 0 0 92 208 201 0 0 0 92 208 201 0 0 0 92 208 
201 92 208 201 0 0 0 92 208 201 92 208 201 92 208 201 92 208 201 92 
208 201 92 208 201 92 208 201 92 208 201 0 0 0 0 0 0 0 0 0 92 208 
201 92 208 201 0 0 0 0 0 0 0 0 0 0 0 0 92 208 201 0 0 0 0 0 0 92 208 
201 92 208 201 92 208 201 0 0 0 0 0 0 0 0 0 92 208 201 92 208 201 92 
208 201 92 208 201 92 208 201 92 208 201 0 0 0 92 208 201 92 208 201 
92 208 201 92 208 201 0 0 0 92 208 201 92 208 201 0 0 0 92 208 201 0 
0 0 92 208 201 0 0 0 92 208 201 92 208 201 0 0 0 92 208 201 92 208 
201 92 208 201 92 208 201 92 208 201 92 208 201 92 208 201 92 208 
201 0 0 0 92 208 201 92 208 201 92 208 201 92 208 201 0 0 0 92 208 
201 92 208 201 0 0 0 92 208 201 0 0 0 92 208 201 92 208 201 0 0 0 92 
208 201 0 0 0 0 0 0 0 0 0 0 0 0 92 208 201 92 208 201 92 208 201 92 
208 201 92 208 201 92 208 201 92 208 201 92 208 201 92 208 201 92 
208 201 92 208 201 92 208 201 92 208 201 92 208 201 92 208 201 92 
208 201 92 208 201 92 208 201 92 208 201 92 208 201 92 208 201 92 
208 201 92 208 201 92 208 201 92 208 201 92 208 201 92 208 201 